<svg xmlns="http://www.w3.org/2000/svg"><symbol id="append" viewBox="0 0 20 20"><path fill-rule="evenodd" clip-rule="evenodd" d="M10 18a8 8 0 1 0 0-16 8 8 0 0 0 0 16Zm1-11a1 1 0 1 0-2 0v2H7a1 1 0 1 0 0 2h2v2a1 1 0 1 0 2 0v-2h2a1 1 0 1 0 0-2h-2V7Z"/></symbol><symbol id="author" viewBox="0 0 18 20"><g clip-path="url(#a)"><path d="M12.316 1.454C11.474.517 10.298 0 9 0 7.695 0 6.515.513 5.677 1.446c-.847.942-1.26 2.223-1.163 3.606C4.706 7.78 6.718 10 9 10c2.281 0 4.29-2.22 4.486-4.947.098-1.37-.318-2.649-1.17-3.599ZM16.616 20H1.384c-.2.003-.397-.04-.578-.127a1.348 1.348 0 0 1-.47-.37c-.28-.347-.394-.82-.31-1.3.365-2.09 1.505-3.845 3.296-5.078C4.915 12.03 6.93 11.428 9 11.428c2.07 0 4.085.603 5.677 1.697 1.791 1.232 2.93 2.988 3.296 5.078.084.479-.03.953-.31 1.3a1.347 1.347 0 0 1-.47.37c-.181.086-.378.13-.578.127Z"/></g><defs><clipPath id="a"><path fill="#fff" d="M0 0h18v20H0z"/></clipPath></defs></symbol><symbol id="search" viewBox="0 0 100 100"><path d="m66.8 62.1-.5.5-7.3-7.3c4.3-5.1 6.9-11.7 6.9-18.9 0-7.7-3.1-15.2-8.6-20.7C51.8 10.1 44.2 7 36.5 7 20.3 7 7.2 20.2 7.2 36.4c0 7.9 3.1 15.3 8.7 20.9 5.5 5.5 12.8 8.5 20.5 8.5h.2c7.2 0 13.8-2.6 18.9-6.9l7.3 7.3-.8.7c-1 1-1 2.6 0 3.5l20.8 20.8c2.3 2.3 6.1 2.3 8.4 0 2.3-2.3 2.3-6.1 0-8.4L70.3 62.1c-1-1-2.5-1-3.5 0zm-30.3-1.4h-.1c-6.4 0-12.5-2.5-17-7-4.6-4.6-7.2-10.8-7.2-17.3C12.2 22.9 23.1 12 36.5 12c6.4 0 12.6 2.6 17.2 7.2s7.2 10.8 7.2 17.2c0 13.4-10.9 24.3-24.4 24.3z"/><path d="M16.8 36.4c0 2.1.3 4.1.9 6.1.5 1.4 2.1 2.1 3.5 1.5 1.1-.5 1.7-1.8 1.3-3-.5-1.5-.7-3-.7-4.6 0-3.7 1.4-7.2 3.9-9.9.8-.9.8-2.3.1-3.2-1-1.2-2.7-1.2-3.8-.1-3.3 3.5-5.2 8.2-5.2 13.2z"/></symbol><symbol id="cart" viewBox="0 0 56 56"><path d="M0 28C0 12.536 12.536 0 28 0s28 12.536 28 28-12.536 28-28 28S0 43.464 0 28Z"/><path d="M25.778 39a1.222 1.222 0 1 0 0-2.444 1.222 1.222 0 0 0 0 2.444ZM34.334 39a1.222 1.222 0 1 0 0-2.444 1.222 1.222 0 0 0 0 2.444Z" fill="#fff" stroke="#fff" stroke-width="1.5" stroke-linecap="round" stroke-linejoin="round"/><path d="M16 17h3.782l2.836 16.073h15.128" stroke="#fff" stroke-width="2" stroke-linecap="round" stroke-linejoin="round"/><path d="m22.111 29.184 15.247.107a.473.473 0 0 0 .464-.38l1.702-8.51a.472.472 0 0 0-.464-.565H20.567" stroke="#fff" stroke-width="2" stroke-linecap="round" stroke-linejoin="round"/></symbol><symbol id="facebook" viewBox="0 0 20 19"><path d="M19.283 9.284C19.283 4.157 14.966 0 9.64 0 4.317 0 0 4.157 0 9.284c0 4.634 3.525 8.475 8.135 9.172V11.97H5.686V9.284h2.449V7.24c0-2.327 1.44-3.613 3.642-3.613 1.055 0 2.158.182 2.158.182v2.285H12.72c-1.197 0-1.571.715-1.571 1.45v1.741h2.673l-.427 2.685h-2.246v6.488c4.61-.697 8.135-4.538 8.135-9.173Z"/></symbol><symbol id="instagram" viewBox="0 0 20 19"><path d="M13.659 1.547a4.109 4.109 0 0 1 2.837 1.137 3.81 3.81 0 0 1 1.18 2.732v7.737a3.81 3.81 0 0 1-1.18 2.732 4.109 4.109 0 0 1-2.837 1.136H5.623a4.11 4.11 0 0 1-2.837-1.136 3.81 3.81 0 0 1-1.18-2.732V5.416a3.81 3.81 0 0 1 1.18-2.732 4.11 4.11 0 0 1 2.837-1.137h8.035Zm0-1.547H5.623C2.531 0 0 2.437 0 5.416v7.737c0 2.978 2.53 5.416 5.624 5.416h8.035c3.093 0 5.624-2.438 5.624-5.416V5.416C19.283 2.437 16.752 0 13.658 0Z"/><path d="M14.863 5.417c-.238 0-.471-.068-.67-.196a1.171 1.171 0 0 1-.443-.52 1.12 1.12 0 0 1-.069-.671c.047-.225.162-.432.33-.594a1.22 1.22 0 0 1 .617-.318c.234-.045.476-.022.697.066.22.088.408.237.54.427a1.13 1.13 0 0 1-.149 1.467 1.243 1.243 0 0 1-.853.34Zm-5.222.773c.636 0 1.257.182 1.786.522.528.34.94.823 1.183 1.389.244.565.307 1.188.183 1.788-.124.6-.43 1.152-.88 1.585a3.254 3.254 0 0 1-1.645.847 3.33 3.33 0 0 1-1.857-.176 3.192 3.192 0 0 1-1.442-1.14 3.014 3.014 0 0 1-.542-1.72c.001-.82.34-1.607.942-2.187a3.281 3.281 0 0 1 2.272-.908Zm0-1.547c-.953 0-1.885.272-2.678.782A4.685 4.685 0 0 0 5.187 7.51a4.483 4.483 0 0 0-.274 2.682c.186.9.645 1.727 1.32 2.377a4.88 4.88 0 0 0 2.468 1.27c.935.18 1.904.087 2.785-.264a4.786 4.786 0 0 0 2.163-1.71 4.52 4.52 0 0 0 .813-2.579 4.557 4.557 0 0 0-1.412-3.282 4.916 4.916 0 0 0-3.409-1.36Z"/></symbol><symbol id="pinterest" viewBox="0 0 20 20"><path d="M9.797 0C4.387 0 0 4.385 0 9.792c0 4.009 2.414 7.454 5.865 8.97-.026-.681-.005-1.503.17-2.246l1.26-5.338s-.315-.625-.315-1.547c0-1.452.84-2.536 1.89-2.536.892 0 1.32.669 1.32 1.469 0 .896-.573 2.234-.866 3.475-.245 1.04.52 1.884 1.549 1.884 1.854 0 3.105-2.382 3.105-5.206 0-2.147-1.448-3.75-4.076-3.75-2.97 0-4.824 2.215-4.824 4.69 0 .852.253 1.456.647 1.919.18.214.205.301.14.546-.048.18-.153.612-.201.787-.066.25-.267.337-.49.245-1.37-.56-2.008-2.055-2.008-3.742 0-2.78 2.349-6.116 7.002-6.116 3.74 0 6.202 2.706 6.202 5.609 0 3.842-2.139 6.71-5.288 6.71-1.058 0-2.05-.572-2.392-1.22 0 0-.568 2.256-.69 2.693-.206.757-.613 1.509-.985 2.099a9.85 9.85 0 0 0 2.777.402c5.41 0 9.797-4.385 9.797-9.792C19.589 4.389 15.207 0 9.797 0Z"/></symbol><symbol id="twitter" viewBox="0 0 21 17"><g clip-path="url(#a)"><path d="M20.66 1.958a8.686 8.686 0 0 1-2.434.659A4.197 4.197 0 0 0 20.091.31a8.511 8.511 0 0 1-2.693 1.011A4.266 4.266 0 0 0 14.303 0c-2.342 0-4.238 1.868-4.238 4.17-.001.321.035.64.11.952A12.082 12.082 0 0 1 1.437.762a4.119 4.119 0 0 0-.576 2.096 4.16 4.16 0 0 0 1.894 3.473 4.197 4.197 0 0 1-1.928-.52v.051c0 2.023 1.464 3.706 3.4 4.09a4.34 4.34 0 0 1-1.116.146c-.267 0-.534-.026-.797-.078.539 1.657 2.106 2.863 3.962 2.897A8.591 8.591 0 0 1 0 14.643a11.995 11.995 0 0 0 6.488 1.885c7.806 0 12.07-6.357 12.07-11.87 0-.182-.004-.362-.012-.539a8.543 8.543 0 0 0 2.114-2.16Z"/></g><defs><clipPath id="a"><path fill="#fff" d="M0 0h21v17H0z"/></clipPath></defs></symbol><symbol id="users" viewBox="0 0 512 512"><path d="M227.857 479.784c-34.208-4.237-67.349-16.498-95.88-35.472-44.305-29.465-76.553-72.584-91.723-122.643-3.534-11.664-7.12-29.29-8.382-41.194-1.163-10.984-1.163-37.88 0-48.865 9.442-89.145 72.506-165.28 158.503-191.354 11.66-3.535 29.283-7.122 41.183-8.383 10.981-1.164 37.871-1.164 48.852 0 52.02 5.512 100.31 29.19 137.353 67.347 25.48 26.248 43.499 56.705 53.951 91.197 6.493 21.424 9.286 41.166 9.286 65.626 0 18.384-.921 28.465-4.054 44.37-15.936 80.91-76.216 147.423-155.353 171.416-11.66 3.536-29.282 7.123-41.183 8.384-11.52 1.22-41.188.978-52.553-.43zm-108.552-75.21c5.43-3.71 22.39-11.768 39.042-18.55 30.719-12.512 41.225-18.327 47.812-26.461 5.835-7.207 5.956-7.749 6.066-27.292l.1-17.761-4.577-6.03c-7.249-9.552-12.574-21.367-15.022-33.33-.94-4.597-1.355-5.233-4.437-6.806-7.411-3.782-11.851-14.045-11.851-27.393 0-8.247.088-8.622 2.992-12.746 2.969-4.217 2.984-4.287 1.94-9.087-7.563-34.776-7.502-60.938.189-80.513 10.585-26.943 35.898-40.992 73.986-41.063 19.535-.037 30.431 3.364 38.674 12.07 2.738 2.891 4.392 3.853 7.471 4.342 2.176.345 6.82 2.005 10.319 3.689 12.628 6.074 21.388 18.647 24.452 35.094 3.294 17.682 1.044 43.585-5.883 67.713-.962 3.349-.86 3.749 1.97 7.767 2.893 4.11 2.983 4.492 2.983 12.734 0 13.327-4.441 23.612-11.822 27.378-3.197 1.632-3.447 2.07-4.874 8.564-2.73 12.42-9.812 27.371-16.016 33.812l-3.11 3.23.376 17.87c.372 17.681.403 17.922 2.894 22.498 5.42 9.96 15.612 17.018 37.883 26.236 29.12 12.054 40.17 17.044 47.447 21.425 5.003 3.011 8.063 4.34 9.182 3.984 2.237-.71 16.305-16.371 24.208-26.95 20.158-26.98 33.41-59.072 38.796-93.942 2.177-14.097 2.169-44.015-.015-58.027-3.503-22.472-9.949-43.035-19.55-62.367-30.467-61.342-87.084-102.43-155.94-113.168-14.065-2.194-43.946-2.194-58.012 0-22.466 3.503-43.024 9.95-62.351 19.555C103.3 101.524 62.224 158.156 51.488 227.03c-2.193 14.07-2.193 43.958 0 58.027 6.879 44.129 25.493 82.123 56.104 114.516 3.541 3.748 7.032 6.812 7.757 6.808.725-.004 2.505-.816 3.956-1.807z"/></symbol><symbol id="view" viewBox="0 0 38 34"><path d="M19 34c10.493 0 19-7.611 19-17S29.493 0 19 0 0 7.611 0 17s8.507 17 19 17Z"/><path d="M25.038 16.5H11m8.077-5.5L26 16.5 19.077 22V11Z" stroke="#fff" stroke-linecap="round" stroke-linejoin="round"/></symbol><symbol id="eye" viewBox="0 0 512 512"><path d="M256 96C144.341 96 47.559 161.021 0 256c47.559 94.979 144.341 160 256 160 111.656 0 208.439-65.021 256-160-47.559-94.979-144.344-160-256-160zm126.225 84.852c30.082 19.187 55.572 44.887 74.719 75.148-19.146 30.261-44.639 55.961-74.719 75.148C344.428 355.257 300.779 368 256 368c-44.78 0-88.428-12.743-126.225-36.852C99.695 311.96 74.205 286.26 55.058 256c19.146-30.262 44.637-55.962 74.717-75.148 1.959-1.25 3.938-2.461 5.929-3.65C130.725 190.866 128 205.613 128 221c0 70.691 57.308 128 128 128 70.691 0 128-57.309 128-128 0-15.387-2.725-30.134-7.703-43.799 1.988 1.189 3.969 2.401 5.928 3.651zM256 205c0 26.51-21.49 48-48 48s-48-21.49-48-48 21.49-48 48-48 48 21.49 48 48z"/></symbol><symbol id="eye-blocked" viewBox="0 0 533.333 533.334"><path d="M437.147 171.05c40.439 28.662 73.63 67.235 96.187 112.283C483.791 382.27 382.976 450 266.667 450c-32.587 0-63.954-5.319-93.322-15.148l40.602-40.602c17.218 3.802 34.881 5.75 52.72 5.75 46.646 0 92.111-13.274 131.482-38.387 31.334-19.988 57.888-46.761 77.832-78.281-19.298-30.503-44.801-56.536-74.817-76.299l35.983-35.983zm-170.48 209.158c-11.835 0-23.308-1.55-34.233-4.445L395.55 212.647c2.898 10.923 4.45 22.393 4.45 34.228 0 73.637-59.696 133.333-133.333 133.333zM500 16.667h-27.988L357.63 131.048c-28.686-9.335-59.247-14.381-90.964-14.381-116.312 0-217.126 67.73-266.667 166.667 22.218 44.371 54.754 82.453 94.372 110.974L0 488.678v27.989h27.989L500 44.655V16.667zM216.667 180.208c25.023 0 45.753 18.382 49.423 42.38l-57.043 57.044c-23.997-3.672-42.379-24.401-42.379-49.424-.001-27.614 22.384-50 49.999-50zM57.352 283.333c19.944-31.522 46.497-58.293 77.83-78.279 2.041-1.302 4.102-2.563 6.176-3.802-5.187 14.233-8.025 29.595-8.025 45.623 0 30.48 10.235 58.567 27.447 81.022l-30.495 30.495c-29.204-19.606-54.038-45.194-72.933-75.059z"/></symbol><symbol id="plus" viewBox="0 0 24 24"><path d="M12 24c-3.2 0-6.2-1.2-8.5-3.5-4.7-4.7-4.7-12.3 0-17C5.8 1.2 8.8 0 12 0s6.2 1.2 8.5 3.5c4.7 4.7 4.7 12.3 0 17-2.3 2.3-5.3 3.5-8.5 3.5zm0-22C9.3 2 6.8 3 4.9 4.9 1 8.8 1 15.2 4.9 19.1 6.8 21 9.3 22 12 22s5.2-1 7.1-2.9C23 15.2 23 8.9 19.1 5c-1.9-2-4.4-3-7.1-3z"/><path d="M12 18c-.6 0-1-.4-1-1V7c0-.6.4-1 1-1s1 .4 1 1v10c0 .6-.4 1-1 1z"/><path d="M17 13H7c-.6 0-1-.4-1-1s.4-1 1-1h10c.6 0 1 .4 1 1s-.4 1-1 1z"/></symbol><symbol id="minus" viewBox="0 0 24 24"><path d="M12 24c-3.2 0-6.2-1.2-8.5-3.5-4.7-4.7-4.7-12.3 0-17C5.8 1.2 8.8 0 12 0s6.2 1.2 8.5 3.5c4.7 4.7 4.7 12.3 0 17-2.3 2.3-5.3 3.5-8.5 3.5zm0-22C9.3 2 6.8 3 4.9 4.9 1 8.8 1 15.2 4.9 19.1 6.8 21 9.3 22 12 22s5.2-1 7.1-2.9C23 15.2 23 8.9 19.1 5c-1.9-2-4.4-3-7.1-3z"/><path d="M17 13H7c-.6 0-1-.4-1-1s.4-1 1-1h10c.6 0 1 .4 1 1s-.4 1-1 1z"/></symbol><symbol id="delete" viewBox="0 0 24 24"><path d="M12 24C5.4 24 0 18.6 0 12S5.4 0 12 0s12 5.4 12 12-5.4 12-12 12zm0-22C6.5 2 2 6.5 2 12s4.5 10 10 10 10-4.5 10-10S17.5 2 12 2z"/><path d="M8 17c-.3 0-.5-.1-.7-.3-.4-.4-.4-1 0-1.4l8-8c.4-.4 1-.4 1.4 0s.4 1 0 1.4l-8 8c-.2.2-.4.3-.7.3z"/><path d="M16 17c-.3 0-.5-.1-.7-.3l-8-8c-.4-.4-.4-1 0-1.4s1-.4 1.4 0l8 8c.4.4.4 1 0 1.4-.2.2-.4.3-.7.3z"/></symbol><symbol id="waste-can" style="enable-background:new 0 0 79.536 79.536" viewBox="0 0 79.536 79.536"><path d="M4.741 73.073c0 3.07 8.759 5.566 19.571 5.566 10.812 0 19.578-2.496 19.578-5.566l4.086-51.494H.652l4.089 51.494zm31.972-44.436c.044-.831.663-1.559 1.587-1.442.826.036 1.479.748 1.438 1.574l-1.805 42.269c-.042.809-.704 1.445-1.51 1.445h-.075c-.826-.037-1.478-.741-1.437-1.574l1.802-42.272zm-13.906.07c0-.833.684-1.512 1.509-1.512.839 0 1.512.678 1.512 1.512v42.264c0 .834-.673 1.513-1.512 1.513-.826 0-1.509-.679-1.509-1.513V28.707zm-12.461-1.538c.779-.09 1.533.616 1.574 1.447l1.812 42.267c.034.829-.608 1.543-1.447 1.579h-.062c-.808 0-1.481-.642-1.512-1.449L8.898 28.749c-.033-.832.62-1.543 1.448-1.58zm37.117-16.894c-.445-2.62-4.215-8.323-17.106-6.188l-2.444.414c-.238-1.421-1.002-2.661-2.175-3.5-1.184-.842-2.582-1.155-4.019-.933-2.934.481-4.922 3.26-4.445 6.198l-2.369.396C1.999 8.808.282 15.431.717 18.038l46.746-7.763zM20.668 4.008c.373-.513.912-.847 1.543-.953 1.294-.217 2.498.663 2.705 1.939l-4.649.774c-.1-.626.042-1.246.401-1.76zM66.942 55.52c.27.337.436.647.519.901.248.729-.042 1.253-.86 1.521l-2.277.757-1.513-1.729c-.29-.859.083-1.678 1.118-2.476l3.013 1.026zm-10.708-6.152 3.009 1.025c.274.336.435.642.522.9.238.735-.03 1.248-.859 1.527l-2.268.756-1.513-1.739c-.299-.858.084-1.682 1.109-2.469zm5.551 2.361-.113-3.573c.455-.394.859-.652 1.253-.782.745-.248 1.429-.196 2.103.13.662.326 1.071.761 1.247 1.273.218.643-.119 1.481-1.03 2.517l-3.46.435zm14.551 6.706c-.218.088-1.035.425-2.476 1.051l-1.273.068-.74-.694c-.43-.445-.704-.829-.823-1.176-.425-1.294-.554-2.594-.362-3.884.186-1.294.673-2.07 1.46-2.324.549.212 1.098.409 1.646.596 1.129.352 1.761.502 1.885.461l-.021-.078c.693-.228 1.201.182 1.554 1.217.311.911.367 1.849.196 2.827-.176.973-.538 1.636-1.046 1.936zm2.548 8.409-2.527.839c-1.066-.16-1.879-.492-2.423-.983l.756-2.714 2.91-.983 1.284 3.841zm-19.128-1.398-2.532.844c-1.066-.155-1.869-.492-2.424-.989l.762-2.708 2.92-.979 1.274 3.832zm8.823 3.453c.891 1.005 1.792 2.843 2.683 5.505.113.326.099.673-.042 1.03-.129.367-.357.735-.662 1.088-.301.352-.674.684-1.108.979-.445.284-.901.502-1.378.662l-4.09 1.373c-.166-.389-.933-1.145-2.315-2.284-1.3-1.165-1.978-1.776-1.998-1.849-.316-.938-.119-2.221.564-3.848.72-1.708 1.553-3.023 2.568-3.93l.331-.104c2.164-.713 3.976-.257 5.447 1.378zM52.444 22.317c-.166-.171-1.906-1.6-2.092-1.719-1.232-.771-2.91-.502-4.34-.794-1.397-.28-2.703-.938-4.049-1.261-1.522-.355-3.42-.471-5.033-.329-2.115.184-3.896 1.204-6.113 1.149 1.69-.875 2.798-2.926 4.603-3.583 1.812-.663 4.464-2.033 6.139-2.929 2.724-1.437 7.954.272 7.788-.217 0 0 4.521 3.055 5.727 3.775l4.765 4.435c.621.492-.809 7.485-.809 7.485l-3.169 2.224-.787-3.141-1.905-1.299c-.248 0-.187-3.223-.725-3.796zm2.889 19.501s-2.144.149-4.649-2.356v-5.31h4.649s2.828 4.833 0 7.666zm10.305-2.842-1.232-8.35 5.173 3.425 3.78 3.454s.818 4.433.818 6.239h-4.282c0-.005-4.257-.932-4.257-4.768z"/></symbol></svg>